<svg width="22" height="24" viewBox="0 0 22 24" fill="none" xmlns="http://www.w3.org/2000/svg">
<path d="M15.5183 22.8599C15.5183 23.0919 15.4261 23.3145 15.262 23.4786C15.0979 23.6427 14.8753 23.7349 14.6433 23.7349H7.64326C7.4112 23.7349 7.18864 23.6427 7.02455 23.4786C6.86045 23.3145 6.76826 23.0919 6.76826 22.8599C6.76826 22.6278 6.86045 22.4052 7.02455 22.2411C7.18864 22.077 7.4112 21.9849 7.64326 21.9849H14.6433C14.8753 21.9849 15.0979 22.077 15.262 22.2411C15.4261 22.4052 15.5183 22.6278 15.5183 22.8599ZM21.4037 17.6033C20.7956 16.5577 19.8933 13.5991 19.8933 9.73486C19.8933 7.41422 18.9714 5.18862 17.3304 3.54768C15.6895 1.90674 13.4639 0.984863 11.1433 0.984863C8.82262 0.984863 6.59702 1.90674 4.95608 3.54768C3.31514 5.18862 2.39326 7.41422 2.39326 9.73486C2.39326 13.6002 1.48983 16.5577 0.882795 17.6033C0.727778 17.8691 0.645598 18.1711 0.644542 18.4789C0.643485 18.7866 0.72359 19.0891 0.876778 19.356C1.02997 19.6229 1.25082 19.8447 1.51707 19.999C1.78331 20.1533 2.08554 20.2346 2.39326 20.2349H19.8933C20.2009 20.2344 20.503 20.1529 20.7691 19.9986C21.0352 19.8442 21.2559 19.6224 21.4089 19.3556C21.562 19.0887 21.642 18.7862 21.6409 18.4786C21.6398 18.171 21.5576 17.869 21.4026 17.6033H21.4037Z" fill="#111111"/>
</svg>
