<svg width="18" height="18" viewBox="0 0 18 18" fill="none" xmlns="http://www.w3.org/2000/svg">
<path d="M12.5624 2.67V1.5C12.5624 1.1925 12.3074 0.9375 11.9999 0.9375C11.6924 0.9375 11.4374 1.1925 11.4374 1.5V2.625H6.56243V1.5C6.56243 1.1925 6.30743 0.9375 5.99993 0.9375C5.69243 0.9375 5.43743 1.1925 5.43743 1.5V2.67C3.41243 2.8575 2.42993 4.065 2.27993 5.8575C2.26493 6.075 2.44493 6.255 2.65493 6.255H15.3449C15.5624 6.255 15.7424 6.0675 15.7199 5.8575C15.5699 4.065 14.5874 2.8575 12.5624 2.67Z" fill="#DC143C"/>
<path d="M14.25 11.25C12.5925 11.25 11.25 12.5925 11.25 14.25C11.25 14.8125 11.4075 15.345 11.685 15.795C12.2025 16.665 13.155 17.25 14.25 17.25C15.345 17.25 16.2975 16.665 16.815 15.795C17.0925 15.345 17.25 14.8125 17.25 14.25C17.25 12.5925 15.9075 11.25 14.25 11.25ZM15.8025 13.9275L14.205 15.405C14.1 15.5025 13.9575 15.555 13.8225 15.555C13.68 15.555 13.5375 15.5025 13.425 15.39L12.6825 14.6475C12.465 14.43 12.465 14.07 12.6825 13.8525C12.9 13.635 13.26 13.635 13.4775 13.8525L13.8375 14.2125L15.0375 13.1025C15.2625 12.8925 15.6225 12.9075 15.8325 13.1325C16.0425 13.3575 16.0275 13.71 15.8025 13.9275Z" fill="#DC143C"/>
<path d="M15 7.38H3C2.5875 7.38 2.25 7.7175 2.25 8.13V12.75C2.25 15 3.375 16.5 6 16.5H9.6975C10.215 16.5 10.575 15.9975 10.41 15.51C10.26 15.075 10.1325 14.595 10.1325 14.25C10.1325 11.9775 11.985 10.125 14.2575 10.125C14.475 10.125 14.6925 10.14 14.9025 10.1775C15.3525 10.245 15.7575 9.8925 15.7575 9.4425V8.1375C15.75 7.71751 15.4125 7.38 15 7.38ZM6.9075 13.6575C6.765 13.7925 6.57 13.875 6.375 13.875C6.18 13.875 5.985 13.7925 5.8425 13.6575C5.7075 13.515 5.625 13.32 5.625 13.125C5.625 12.93 5.7075 12.735 5.8425 12.5925C5.9175 12.525 5.9925 12.4725 6.09 12.435C6.3675 12.315 6.6975 12.3825 6.9075 12.5925C7.0425 12.735 7.125 12.93 7.125 13.125C7.125 13.32 7.0425 13.515 6.9075 13.6575ZM6.9075 11.0325C6.87 11.0625 6.8325 11.0925 6.795 11.1225C6.75 11.1525 6.705 11.175 6.66 11.19C6.615 11.2125 6.57 11.2275 6.525 11.235C6.4725 11.2425 6.42 11.25 6.375 11.25C6.18 11.25 5.985 11.1675 5.8425 11.0325C5.7075 10.89 5.625 10.695 5.625 10.5C5.625 10.305 5.7075 10.11 5.8425 9.9675C6.015 9.795 6.2775 9.7125 6.525 9.765C6.57 9.7725 6.615 9.7875 6.66 9.81C6.705 9.825 6.75 9.8475 6.795 9.8775C6.8325 9.9075 6.87 9.9375 6.9075 9.9675C7.0425 10.11 7.125 10.305 7.125 10.5C7.125 10.695 7.0425 10.89 6.9075 11.0325ZM9.5325 11.0325C9.39 11.1675 9.195 11.25 9 11.25C8.805 11.25 8.61 11.1675 8.4675 11.0325C8.3325 10.89 8.25 10.695 8.25 10.5C8.25 10.305 8.3325 10.11 8.4675 9.9675C8.7525 9.69 9.255 9.69 9.5325 9.9675C9.6675 10.11 9.75 10.305 9.75 10.5C9.75 10.695 9.6675 10.89 9.5325 11.0325Z" fill="#DC143C"/>
</svg>
