<svg width="32" height="32" viewBox="0 0 32 32" fill="none" xmlns="http://www.w3.org/2000/svg">
<path d="M29.5 16H28.48C28.27 13.47 26.51 11.33 23.97 10.58C22.28 10.08 20.44 9.75 18.5 9.6V9.5C18.5 8.675 17.825 8 17 8H16.5V5.435C17.365 5.215 18 4.43 18 3.5C18 2.395 17.105 1.5 16 1.5C14.895 1.5 14 2.395 14 3.5C14 4.43 14.635 5.215 15.5 5.435V8H15C14.175 8 13.5 8.675 13.5 9.5V9.6C11.56 9.75 9.72 10.08 8.03 10.58C5.49 11.33 3.73 13.47 3.52 16H2.5C1.675 16 1 16.675 1 17.5V22.5C1 23.325 1.675 24 2.5 24H3.52C3.73 26.53 5.49 28.67 8.03 29.42C10.425 30.125 13.185 30.5 16 30.5C18.815 30.5 21.575 30.125 23.97 29.42C26.51 28.67 28.27 26.53 28.48 24H29.5C30.325 24 31 23.325 31 22.5V17.5C31 16.675 30.325 16 29.5 16ZM14.5 10.065V9.5C14.5 9.225 14.725 9 15 9H17C17.275 9 17.5 9.225 17.5 9.5V13C17.5 13 17.5 13.05 17.495 13.075C17.455 13.315 17.25 13.5 17 13.5H15C14.75 13.5 14.545 13.315 14.505 13.075C14.5 13.05 14.5 13.025 14.5 13V10.065ZM19 21C19.275 21 19.5 21.225 19.5 21.5C19.5 23.43 17.93 25 16 25C14.07 25 12.5 23.43 12.5 21.5C12.5 21.225 12.725 21 13 21H19ZM11 19.5C10.175 19.5 9.5 18.825 9.5 18C9.5 17.175 10.175 16.5 11 16.5C11.825 16.5 12.5 17.175 12.5 18C12.5 18.825 11.825 19.5 11 19.5ZM27.5 23.5C27.5 25.8 25.97 27.79 23.69 28.46C21.38 29.14 18.725 29.5 16 29.5C13.275 29.5 10.62 29.14 8.31 28.46C6.03 27.79 4.5 25.8 4.5 23.5V16.5C4.5 14.2 6.03 12.21 8.31 11.54C9.91 11.07 11.655 10.755 13.5 10.605V12.61C12.15 12.73 10.865 12.945 9.675 13.255C7.475 13.83 6 15.555 6 17.555V22.445C6 24.445 7.475 26.17 9.675 26.745C11.585 27.24 13.77 27.5 16 27.5C18.23 27.5 20.415 27.24 22.325 26.745C24.525 26.17 26 24.445 26 22.445V17.555C26 15.555 24.525 13.83 22.325 13.255C21.135 12.945 19.85 12.73 18.5 12.61V10.605C20.345 10.755 22.09 11.07 23.69 11.54C25.97 12.21 27.5 14.2 27.5 16.5V23.5ZM19.5 18C19.5 17.175 20.175 16.5 21 16.5C21.825 16.5 22.5 17.175 22.5 18C22.5 18.825 21.825 19.5 21 19.5C20.175 19.5 19.5 18.825 19.5 18ZM30 22.5C30 22.775 29.775 23 29.5 23H28.5V17H29.5C29.775 17 30 17.225 30 17.5V22.5Z" fill="white"/>
<path d="M29.5 1.5H21.5C20.675 1.5 20 2.175 20 3V7C20 7.825 20.675 8.5 21.5 8.5H25.5V10C25.5 10.19 25.61 10.365 25.785 10.45C25.85 10.485 25.925 10.5 26 10.5C26.11 10.5 26.22 10.465 26.31 10.39L28.675 8.5H29.5C30.325 8.5 31 7.825 31 7V3C31 2.175 30.325 1.5 29.5 1.5ZM23 5.5C22.725 5.5 22.5 5.275 22.5 5C22.5 4.725 22.725 4.5 23 4.5C23.275 4.5 23.5 4.725 23.5 5C23.5 5.275 23.275 5.5 23 5.5ZM25.5 5.5C25.225 5.5 25 5.275 25 5C25 4.725 25.225 4.5 25.5 4.5C25.775 4.5 26 4.725 26 5C26 5.275 25.775 5.5 25.5 5.5ZM28 5.5C27.725 5.5 27.5 5.275 27.5 5C27.5 4.725 27.725 4.5 28 4.5C28.275 4.5 28.5 4.725 28.5 5C28.5 5.275 28.275 5.5 28 5.5Z" fill="white"/>
</svg>
