<svg version="1.2" xmlns="http://www.w3.org/2000/svg" viewBox="0 0 82 82" width="82" height="82">
	<title>logo-svg</title>
	<defs>
		<clipPath clipPathUnits="userSpaceOnUse" id="cp1">
			<path d="m0.41 0.14h81.18v81.18h-81.18z"/>
		</clipPath>
		<clipPath clipPathUnits="userSpaceOnUse" id="cp2">
			<path d="m41 0.14c-22.42 0-40.59 18.17-40.59 40.59 0 22.42 18.17 40.59 40.59 40.59 22.42 0 40.59-18.17 40.59-40.59 0-22.42-18.17-40.59-40.59-40.59z"/>
		</clipPath>
		<clipPath clipPathUnits="userSpaceOnUse" id="cp3">
			<path d="m33 44h31.14v20.45h-31.14z"/>
		</clipPath>
		<clipPath clipPathUnits="userSpaceOnUse" id="cp4">
			<path d="m17.64 17.2h46.5v43.8h-46.5z"/>
		</clipPath>
	</defs>
	<style>
		.s0 { fill: #d79555 } 
		.s1 { fill: #f6f6e9 } 
	</style>
	<g id="Clip-Path" clip-path="url(#cp1)">
		<g>
			<g id="Clip-Path" clip-path="url(#cp2)">
				<g>
					<path class="s0" d="m0.4 0.1h81.2v81.2h-81.2z"/>
				</g>
			</g>
		</g>
	</g>
	<g id="Clip-Path" clip-path="url(#cp3)">
		<g>
			<path class="s1" d="m54.6 51c-3.1 4-8 6.6-13.5 6.6q-1.9 0-3.8-0.4l-3.4 5.9q3.5 1.1 7.2 1.1c3.2 0 6.3-0.6 9.2-1.8 2.8-1.2 5.3-2.9 7.4-5.1q2.9-2.8 4.6-6.3 0.2-0.6 0.5-1.1 1.1-2.7 1.5-5.5h-19.4l-3.9 6.6z"/>
		</g>
	</g>
	<g id="Clip-Path" clip-path="url(#cp4)">
		<g>
			<path class="s1" d="m31.8 19.2c-2.9 1.2-5.5 3-7.6 5.3q-0.5 0.5-1 1.1-0.1 0.1-0.2 0.2l8.8 14.9-4.8 8.2-8.5-14.3q-0.8 3-0.9 6.1 0 3.7 1.1 7.1 0.4 1.1 0.8 2.1 1.3 3.1 3.5 5.8 0.6 0.7 1.2 1.3v0.1l0.3 0.2q1.6 1.6 3.5 2.9 0 0 0 0l11.4-19.5-8.1-13.8c2.9-2 6.3-3.1 9.8-3.1 5.5 0 10.4 2.6 13.5 6.7h-13.6l3.9 6.5h19.4q-0.4-2.8-1.5-5.4-0.3-0.6-0.5-1.1-1.7-3.6-4.6-6.4c-2.1-2.1-4.6-3.8-7.4-5-2.9-1.2-6-1.9-9.2-1.9-3.2 0-6.4 0.7-9.3 2z"/>
		</g>
	</g>
</svg>