<svg width="66" height="66" viewBox="0 0 66 66" fill="none" xmlns="http://www.w3.org/2000/svg">
<g filter="url(#filter0_d_258_23251)">
<rect x="13" y="9" width="40" height="40" rx="8" fill="white"/>
<rect x="13.5" y="9.5" width="39" height="39" rx="7.5" stroke="#6A6CF0"/>
</g>
<g clip-path="url(#clip0_258_23251)">
<path d="M29.138 38.6251H24.25C24.0179 38.6251 23.7954 38.533 23.6313 38.3689C23.4672 38.2048 23.375 37.9822 23.375 37.7501V32.8622C23.3751 32.6304 23.4672 32.4082 23.6309 32.2442L37.1191 18.7561C37.2831 18.5921 37.5056 18.5 37.7376 18.5C37.9695 18.5 38.192 18.5921 38.3561 18.7561L43.2441 23.6408C43.408 23.8048 43.5001 24.0273 43.5001 24.2593C43.5001 24.4912 43.408 24.7137 43.2441 24.8778L29.7559 38.3692C29.592 38.533 29.3697 38.625 29.138 38.6251Z" stroke="#6A6CF0" stroke-width="1.5" stroke-linecap="round" stroke-linejoin="round"/>
<path d="M33.875 22L40 28.125" stroke="#6A6CF0" stroke-width="1.5" stroke-linecap="round" stroke-linejoin="round"/>
</g>
<defs>
<filter id="filter0_d_258_23251" x="0" y="0" width="66" height="66" filterUnits="userSpaceOnUse" color-interpolation-filters="sRGB">
<feFlood flood-opacity="0" result="BackgroundImageFix"/>
<feColorMatrix in="SourceAlpha" type="matrix" values="0 0 0 0 0 0 0 0 0 0 0 0 0 0 0 0 0 0 127 0" result="hardAlpha"/>
<feMorphology radius="1" operator="dilate" in="SourceAlpha" result="effect1_dropShadow_258_23251"/>
<feOffset dy="4"/>
<feGaussianBlur stdDeviation="6"/>
<feComposite in2="hardAlpha" operator="out"/>
<feColorMatrix type="matrix" values="0 0 0 0 0 0 0 0 0 0 0 0 0 0 0 0 0 0 0.15 0"/>
<feBlend mode="normal" in2="BackgroundImageFix" result="effect1_dropShadow_258_23251"/>
<feBlend mode="normal" in="SourceGraphic" in2="effect1_dropShadow_258_23251" result="shape"/>
</filter>
<clipPath id="clip0_258_23251">
<rect width="28" height="28" fill="white" transform="translate(19 15)"/>
</clipPath>
</defs>
</svg>
