<svg width="66" height="66" viewBox="0 0 66 66" fill="none" xmlns="http://www.w3.org/2000/svg">
<g filter="url(#filter0_d_258_23243)">
<rect x="13" y="9" width="40" height="40" rx="8" fill="white"/>
<rect x="13.5" y="9.5" width="39" height="39" rx="7.5" stroke="#2FDA32"/>
</g>
<g clip-path="url(#clip0_258_23243)">
<path d="M26 23.75V19.375H40V23.75" stroke="#2FDA32" stroke-width="1.5" stroke-linecap="round" stroke-linejoin="round"/>
<path d="M40 31.625H26V38.625H40V31.625Z" stroke="#2FDA32" stroke-width="1.5" stroke-linecap="round" stroke-linejoin="round"/>
<path d="M26 34.25H21.625V25.5C21.625 24.5331 22.4738 23.75 23.5205 23.75H42.4795C43.5262 23.75 44.375 24.5331 44.375 25.5V34.25H40" stroke="#2FDA32" stroke-width="1.5" stroke-linecap="round" stroke-linejoin="round"/>
<path d="M39.25 28.375C39.8023 28.375 40.25 27.9273 40.25 27.375C40.25 26.8227 39.8023 26.375 39.25 26.375C38.6977 26.375 38.25 26.8227 38.25 27.375C38.25 27.9273 38.6977 28.375 39.25 28.375Z" fill="#2FDA32"/>
</g>
<defs>
<filter id="filter0_d_258_23243" x="0" y="0" width="66" height="66" filterUnits="userSpaceOnUse" color-interpolation-filters="sRGB">
<feFlood flood-opacity="0" result="BackgroundImageFix"/>
<feColorMatrix in="SourceAlpha" type="matrix" values="0 0 0 0 0 0 0 0 0 0 0 0 0 0 0 0 0 0 127 0" result="hardAlpha"/>
<feMorphology radius="1" operator="dilate" in="SourceAlpha" result="effect1_dropShadow_258_23243"/>
<feOffset dy="4"/>
<feGaussianBlur stdDeviation="6"/>
<feComposite in2="hardAlpha" operator="out"/>
<feColorMatrix type="matrix" values="0 0 0 0 0 0 0 0 0 0 0 0 0 0 0 0 0 0 0.15 0"/>
<feBlend mode="normal" in2="BackgroundImageFix" result="effect1_dropShadow_258_23243"/>
<feBlend mode="normal" in="SourceGraphic" in2="effect1_dropShadow_258_23243" result="shape"/>
</filter>
<clipPath id="clip0_258_23243">
<rect width="28" height="28" fill="white" transform="translate(19 15)"/>
</clipPath>
</defs>
</svg>
