<svg width="29" height="28" viewBox="0 0 29 28" fill="none" xmlns="http://www.w3.org/2000/svg">
<g clip-path="url(#clip0_2313_4347)">
<path d="M8.66402 15.7422L4.33496 19.2422V5.24219C4.33496 5.01012 4.42715 4.78756 4.59124 4.62347C4.75534 4.45937 4.9779 4.36719 5.20996 4.36719H19.21C19.442 4.36719 19.6646 4.45937 19.8287 4.62347C19.9928 4.78756 20.085 5.01012 20.085 5.24219V14.8672C20.085 15.0993 19.9928 15.3218 19.8287 15.4859C19.6646 15.65 19.442 15.7422 19.21 15.7422H8.66402Z" stroke="#4285F4" stroke-width="1.5" stroke-linecap="round" stroke-linejoin="round"/>
<path d="M9.58496 15.7422V20.1172C9.58496 20.3493 9.67715 20.5718 9.84124 20.7359C10.0053 20.9 10.2279 20.9922 10.46 20.9922H21.0059L25.335 24.4922V10.4922C25.335 10.2601 25.2428 10.0376 25.0787 9.87347C24.9146 9.70937 24.692 9.61719 24.46 9.61719H20.085" stroke="#4285F4" stroke-width="1.5" stroke-linecap="round" stroke-linejoin="round"/>
</g>
<defs>
<clipPath id="clip0_2313_4347">
<rect width="28" height="28" fill="white" transform="translate(0.834961 -0.0078125)"/>
</clipPath>
</defs>
</svg>
