<svg width="28" height="28" viewBox="0 0 28 28" fill="none" xmlns="http://www.w3.org/2000/svg">
<circle cx="14" cy="14" r="14" fill="white" fill-opacity="0.5"/>
<path d="M17.3327 14.7501V18.2501C17.3327 21.1667 16.166 22.3334 13.2493 22.3334H9.74935C6.83268 22.3334 5.66602 21.1667 5.66602 18.2501V14.7501C5.66602 11.8334 6.83268 10.6667 9.74935 10.6667H13.2493C16.166 10.6667 17.3327 11.8334 17.3327 14.7501Z" fill="#A1A1A1"/>
<path d="M18.2508 5.66675H14.7508C12.2473 5.66675 11.0392 6.5324 10.7467 8.61583C10.6693 9.16733 11.1308 9.62508 11.6877 9.62508H13.2508C16.7508 9.62508 18.3758 11.2501 18.3758 14.7501V16.3132C18.3758 16.8701 18.8335 17.3315 19.385 17.2541C21.4685 16.9617 22.3341 15.7535 22.3341 13.2501V9.75008C22.3341 6.83341 21.1674 5.66675 18.2508 5.66675Z" fill="#A1A1A1"/>
</svg>
