<svg width="16" height="12" viewBox="0 0 16 12" fill="none" xmlns="http://www.w3.org/2000/svg">
<g clip-path="url(#clip0_258_15724)">
<path d="M1.09383 12H3.64611V5.82855L0 3.08569V10.9071C0 11.5071 0.493298 12 1.09383 12Z" fill="#4285F4"/>
<path d="M12.375 12H14.9273C15.5278 12 16.0211 11.5071 16.0211 10.9071V3.08569L12.375 5.80712" fill="#34A853"/>
<path d="M12.375 1.09287V5.82859L16.0211 3.10716V1.62859C16.0211 0.278589 14.4769 -0.49284 13.4045 0.321446" fill="#FBBC04"/>
<path d="M3.64648 5.82849V1.09277L8.02182 4.37134L12.3757 1.09277V5.82849L8.00037 9.08563" fill="#EA4335"/>
<path d="M0 1.62856V3.08571L3.64611 5.80713V1.09285L2.61662 0.32142C1.54424 -0.471437 0 0.299991 0 1.62856Z" fill="#C5221F"/>
</g>
<defs>
<clipPath id="clip0_258_15724">
<rect width="16" height="12" fill="white"/>
</clipPath>
</defs>
</svg>
