<svg width="114" height="114" viewBox="0 0 114 114" fill="none" xmlns="http://www.w3.org/2000/svg">
<path d="M57 14.25C33.3898 14.25 14.25 33.3898 14.25 57C14.25 80.6102 33.3898 99.75 57 99.75C80.6102 99.75 99.75 80.6102 99.75 57C99.75 33.3898 80.6102 14.25 57 14.25Z" fill="white"/>
<path d="M57 22.2656C37.8167 22.2656 22.2656 37.8167 22.2656 57C22.2656 76.1833 37.8167 91.7344 57 91.7344C76.1833 91.7344 91.7344 76.1833 91.7344 57C91.7344 37.8167 76.1833 22.2656 57 22.2656Z" fill="#94D82D"/>
<path d="M57 14.25C33.3898 14.25 14.25 33.3898 14.25 57C14.25 80.6102 33.3898 99.75 57 99.75C80.6102 99.75 99.75 80.6102 99.75 57C99.75 33.3898 80.6102 14.25 57 14.25Z" stroke="#94D82D" stroke-width="6" stroke-miterlimit="10"/>
<path d="M37.4062 61.4531L49.4742 72.1406L76.5938 40.9688" stroke="white" stroke-width="6" stroke-miterlimit="10" stroke-linecap="round"/>
</svg>
