<svg width="20" height="20" viewBox="0 0 20 20" fill="none" xmlns="http://www.w3.org/2000/svg">
<path d="M10 1C5.02944 1 1 5.02944 1 10C1 14.9706 5.02944 19 10 19C14.9706 19 19 14.9706 19 10C19 5.02944 14.9706 1 10 1Z" fill="white"/>
<path d="M10 2.6875C5.96142 2.6875 2.6875 5.96142 2.6875 10C2.6875 14.0386 5.96142 17.3125 10 17.3125C14.0386 17.3125 17.3125 14.0386 17.3125 10C17.3125 5.96142 14.0386 2.6875 10 2.6875Z" fill="#94D82D"/>
<path d="M10 1C5.02944 1 1 5.02944 1 10C1 14.9706 5.02944 19 10 19C14.9706 19 19 14.9706 19 10C19 5.02944 14.9706 1 10 1Z" stroke="#94D82D" stroke-width="0.9375" stroke-miterlimit="10"/>
<path d="M5.875 10.9375L8.41562 13.1875L14.125 6.625" stroke="white" stroke-width="0.9375" stroke-miterlimit="10" stroke-linecap="round"/>
</svg>
