<svg width="16" height="16" viewBox="0 0 16 16" fill="none" xmlns="http://www.w3.org/2000/svg">
<path fill-rule="evenodd" clip-rule="evenodd" d="M13.6687 2.32334C12.1648 0.825856 10.1647 0.000759757 8.0336 0C3.64227 0 0.068376 3.55377 0.066848 7.92199C0.066084 9.31841 0.433176 10.6814 1.13031 11.8826L0 15.9883L4.22327 14.8867C5.3868 15.5181 6.69702 15.8504 8.03018 15.8508H8.0336C12.4242 15.8508 15.9985 12.2967 16 7.92844C16.0008 5.8114 15.173 3.8212 13.6687 2.32372V2.32334ZM8.0336 14.5129H8.03093C6.84293 14.5125 5.67751 14.1949 4.66067 13.5951L4.41885 13.4523L1.91262 14.106L2.58148 11.6759L2.4241 11.4267C1.76135 10.3783 1.41107 9.16645 1.41183 7.92239C1.41336 4.29187 4.38371 1.33793 8.03631 1.33793C9.80489 1.33869 11.4673 2.02438 12.7176 3.26924C13.9678 4.51372 14.6558 6.16849 14.655 7.92769C14.6535 11.5586 11.6832 14.5125 8.0336 14.5125V14.5129ZM11.6656 9.5813C11.4665 9.48217 10.4879 9.00349 10.3053 8.93741C10.1227 8.87129 9.99018 8.83828 9.8576 9.03655C9.72507 9.23487 9.34347 9.68084 9.22733 9.81264C9.1112 9.94484 8.99507 9.96119 8.79604 9.86201C8.59707 9.76287 7.95569 9.55394 7.19516 8.87965C6.60347 8.35465 6.20387 7.70661 6.08778 7.50829C5.97164 7.31001 6.07556 7.20287 6.17484 7.10449C6.26422 7.0156 6.37387 6.87315 6.47356 6.75766C6.57329 6.64217 6.60613 6.55938 6.67258 6.42754C6.73907 6.29534 6.70582 6.17989 6.65618 6.08071C6.60649 5.98157 6.20849 5.00716 6.04231 4.61096C5.88071 4.22501 5.71649 4.27744 5.59462 4.27098C5.47849 4.26528 5.34596 4.26414 5.21302 4.26414C5.08009 4.26414 4.86462 4.31352 4.68204 4.51182C4.49947 4.7101 3.98529 5.18913 3.98529 6.16314C3.98529 7.13715 4.69849 8.07889 4.79818 8.21109C4.89787 8.34329 6.20196 10.3426 8.19862 11.2004C8.67347 11.4043 9.04436 11.5263 9.33351 11.6175C9.81027 11.7683 10.2442 11.747 10.5872 11.6961C10.9696 11.6391 11.7649 11.2171 11.9307 10.7547C12.0964 10.2924 12.0964 9.89582 12.0468 9.81339C11.9972 9.73096 11.8642 9.68119 11.6652 9.58206L11.6656 9.5813Z" fill="#25D366"/>
</svg>
