<svg width="16" height="16" viewBox="0 0 16 16" fill="none" xmlns="http://www.w3.org/2000/svg">
<g clip-path="url(#clip0_338_21477)">
<path d="M5.793 13.4998H2.99988C2.86727 13.4998 2.74009 13.4472 2.64632 13.3534C2.55256 13.2596 2.49988 13.1324 2.49988 12.9998V10.2067C2.49994 10.0743 2.55254 9.94728 2.64613 9.85359L10.3536 2.14609C10.4474 2.05239 10.5745 1.99976 10.7071 1.99976C10.8396 1.99976 10.9667 2.05239 11.0605 2.14609L13.8536 4.93734C13.9473 5.0311 14 5.15822 14 5.29077C14 5.42333 13.9473 5.55045 13.8536 5.64421L6.14613 13.3536C6.05243 13.4472 5.92543 13.4998 5.793 13.4998Z" stroke="#6A6CF0" stroke-width="1.5" stroke-linecap="round" stroke-linejoin="round"/>
<path d="M8.49988 3.99976L11.9999 7.49976" stroke="#6A6CF0" stroke-width="1.5" stroke-linecap="round" stroke-linejoin="round"/>
</g>
<defs>
<clipPath id="clip0_338_21477">
<rect width="16" height="16" fill="white" transform="translate(-0.00012207 -0.000244141)"/>
</clipPath>
</defs>
</svg>
