<svg width="16" height="17" viewBox="0 0 16 17" fill="none" xmlns="http://www.w3.org/2000/svg">
<g clip-path="url(#clip0_338_21544)">
<path d="M3.40375 13.0962C2.82875 12.5212 3.21 11.3131 2.9175 10.6056C2.61375 9.875 1.5 9.28125 1.5 8.5C1.5 7.71875 2.61375 7.125 2.9175 6.39437C3.21 5.6875 2.82875 4.47875 3.40375 3.90375C3.97875 3.32875 5.1875 3.71 5.89437 3.4175C6.62812 3.11375 7.21875 2 8 2C8.78125 2 9.375 3.11375 10.1056 3.4175C10.8131 3.71 12.0212 3.32875 12.5962 3.90375C13.1712 4.47875 12.79 5.68687 13.0825 6.39437C13.3863 7.12812 14.5 7.71875 14.5 8.5C14.5 9.28125 13.3863 9.875 13.0825 10.6056C12.79 11.3131 13.1712 12.5212 12.5962 13.0962C12.0212 13.6712 10.8131 13.29 10.1056 13.5825C9.375 13.8863 8.78125 15 8 15C7.21875 15 6.625 13.8863 5.89437 13.5825C5.1875 13.29 3.97875 13.6712 3.40375 13.0962Z" stroke="#111111" stroke-linecap="round" stroke-linejoin="round"/>
<path d="M6 7.5C6.55228 7.5 7 7.05228 7 6.5C7 5.94772 6.55228 5.5 6 5.5C5.44772 5.5 5 5.94772 5 6.5C5 7.05228 5.44772 7.5 6 7.5Z" stroke="#111111" stroke-linecap="round" stroke-linejoin="round"/>
<path d="M10 11.5C10.5523 11.5 11 11.0523 11 10.5C11 9.94772 10.5523 9.5 10 9.5C9.44772 9.5 9 9.94772 9 10.5C9 11.0523 9.44772 11.5 10 11.5Z" stroke="#111111" stroke-linecap="round" stroke-linejoin="round"/>
<path d="M5.5 11L10.5 6" stroke="#111111" stroke-linecap="round" stroke-linejoin="round"/>
</g>
<defs>
<clipPath id="clip0_338_21544">
<rect width="16" height="16" fill="white" transform="translate(0 0.5)"/>
</clipPath>
</defs>
</svg>
