<svg width="17" height="17" viewBox="0 0 17 17" fill="none" xmlns="http://www.w3.org/2000/svg">
<path d="M10.843 10.3547C10.9295 10.2971 11.0291 10.262 11.1326 10.2526C11.2362 10.2432 11.3404 10.2598 11.4359 10.3008L15.1203 11.9516C15.2445 12.0047 15.3481 12.0965 15.4157 12.2134C15.4833 12.3303 15.5112 12.466 15.4953 12.6C15.3739 13.5071 14.9273 14.3392 14.2383 14.9416C13.5494 15.544 12.6652 15.8757 11.75 15.875C8.93208 15.875 6.22957 14.7556 4.23699 12.7631C2.24442 10.7705 1.125 8.06797 1.125 5.25004C1.1243 4.33489 1.456 3.45063 2.05841 2.76171C2.66082 2.07279 3.49293 1.62611 4.4 1.50473C4.53409 1.4888 4.66973 1.51673 4.78662 1.58433C4.90351 1.65193 4.99537 1.75557 5.04844 1.87973L6.69922 5.56723C6.73978 5.66194 6.7563 5.76521 6.7473 5.86785C6.7383 5.97048 6.70407 6.0693 6.64766 6.15551L4.97813 8.14067C4.9189 8.23003 4.88388 8.33323 4.87649 8.44018C4.86909 8.54713 4.88958 8.65416 4.93594 8.75082C5.58203 10.0735 6.94922 11.4243 8.27578 12.0641C8.37295 12.1103 8.48048 12.1303 8.58776 12.1222C8.69503 12.1141 8.79834 12.0782 8.8875 12.018L10.843 10.3547Z" stroke="#94D82D" stroke-width="1.5" stroke-linecap="round" stroke-linejoin="round"/>
</svg>
