<svg width="17" height="17" viewBox="0 0 17 17" fill="none" xmlns="http://www.w3.org/2000/svg">
<path d="M5.24141 15.875H1.75C1.58424 15.875 1.42527 15.8091 1.30806 15.6919C1.19085 15.5747 1.125 15.4157 1.125 15.25V11.7586C1.12508 11.593 1.19082 11.4343 1.30781 11.3172L10.9422 1.68279C11.0594 1.56567 11.2183 1.49988 11.384 1.49988C11.5497 1.49988 11.7086 1.56567 11.8258 1.68279L15.3172 5.17185C15.4343 5.28905 15.5001 5.44796 15.5001 5.61365C15.5001 5.77934 15.4343 5.93825 15.3172 6.05545L5.68281 15.6922C5.56569 15.8092 5.40695 15.8749 5.24141 15.875Z" stroke="#6A6CF0" stroke-width="1.5" stroke-linecap="round" stroke-linejoin="round"/>
</svg>
