<svg width="28" height="28" viewBox="0 0 28 28" fill="none" xmlns="http://www.w3.org/2000/svg">
<path d="M16.8516 23.4951C17.0336 23.5563 17.23 23.4588 17.2913 23.2776L19.4184 16.9877C19.1839 16.9606 18.9498 16.9282 18.7184 16.8919L16.6342 23.0563C16.6044 23.1438 16.611 23.2374 16.6517 23.3201C16.6928 23.4032 16.7637 23.4658 16.8516 23.4951Z" fill="#707070"/>
<path d="M11.1492 23.4951C11.2363 23.4653 11.3072 23.4036 11.3483 23.3205C11.3894 23.2374 11.3955 23.1442 11.3662 23.0567L9.28154 16.8919C9.05011 16.9282 8.81604 16.961 8.58154 16.9877L10.7087 23.2776C10.7704 23.4588 10.9672 23.5568 11.1492 23.4951Z" fill="#707070"/>
<path d="M26.247 6.25187C26.2496 6.11318 26.2172 6.01693 26.1582 5.93906C26.0414 5.78374 25.8869 5.75793 25.8051 5.75662C25.6625 5.75224 25.5295 5.81656 25.438 5.92899C24.6374 6.91031 23.951 9.20412 23.5056 12.3878C23.3118 13.7585 23.237 14.7901 23.2365 14.8002C23.2195 15.0412 23.013 15.2206 22.7689 15.2053C22.5278 15.1878 22.3467 14.9787 22.3637 14.7381C22.3638 14.7366 22.364 14.7339 22.3643 14.7301C22.3716 14.6345 22.4336 13.8184 22.5834 12.6787M26.247 6.25187L25.8488 6.21384L25.8471 6.23157M26.247 6.25187L25.847 6.2443C25.8471 6.23976 25.8471 6.23552 25.8471 6.23157M26.247 6.25187L25.5549 13.4986C25.4433 14.6462 24.6269 15.6139 23.524 15.9062L22.5834 12.6787M25.8471 6.23157C25.8467 6.20379 25.8434 6.19038 25.8422 6.18628C25.8413 6.18317 25.841 6.18277 25.8395 6.18077L25.8385 6.17949C25.8319 6.17068 25.8269 6.16646 25.8243 6.16453C25.8216 6.16248 25.8191 6.16116 25.8167 6.16014C25.8106 6.15765 25.8034 6.15664 25.7987 6.15657L25.7928 6.15647L25.7928 6.15643C25.7861 6.15623 25.78 6.15748 25.7735 6.16055C25.7667 6.16375 25.7577 6.16992 25.7484 6.18137L25.748 6.18186C25.3983 6.61048 25.0447 7.36811 24.7218 8.44717C24.402 9.5162 24.1226 10.8646 23.9017 12.4432L23.9017 12.4438C23.7181 13.7421 23.643 14.7279 23.6366 14.8118C23.6363 14.8159 23.6361 14.8179 23.6362 14.8176L23.6357 14.8284L23.6355 14.8284C23.6027 15.2919 23.2038 15.6334 22.7438 15.6045L22.7399 15.6043L22.7399 15.6043C22.279 15.5708 21.932 15.1708 21.9647 14.7098L21.9649 14.7067L21.965 14.7067C21.9651 14.7051 21.9653 14.7023 21.9656 14.6983C21.9722 14.6112 22.022 13.9571 22.1378 13.0124M25.8471 6.23157L25.1567 13.4599C25.1567 13.46 25.1567 13.4601 25.1567 13.4602C25.061 14.4436 24.3605 15.2707 23.4215 15.5195L23.421 15.5197C23.1917 15.5807 22.9794 15.6263 22.7596 15.6612L22.7596 15.661L22.749 15.663C22.3083 15.7451 21.8143 15.7937 21.2762 15.806L21.2762 15.806L21.272 15.8061C20.8921 15.8187 20.4897 15.8091 20.0771 15.7761C19.5609 15.733 19.0695 15.6686 18.5758 15.5796C17.6894 15.4159 16.7348 15.1558 15.7389 14.8053L15.7385 14.8051C15.6588 14.7772 15.6014 14.6989 15.6014 14.6077C15.6014 14.5493 15.6058 14.49 15.6142 14.4291C17.8269 14.2495 19.7672 13.7063 21.1476 12.9041C21.4937 12.931 21.8245 12.9671 22.1378 13.0124M22.1378 13.0124C22.2661 13.0309 22.3914 13.051 22.5137 13.0726L22.5834 12.6787M22.1378 13.0124C22.153 12.8886 22.1693 12.7598 22.1868 12.6266L22.5834 12.6787M22.5834 12.6787C22.2941 12.6276 21.9895 12.585 21.6714 12.5508L22.5834 12.6787Z" stroke="#707070" stroke-width="0.8"/>
<path d="M21.4464 8.00128C21.4464 8.2863 21.3089 8.60392 20.9635 8.94191C20.6165 9.28152 20.0885 9.61038 19.3954 9.89723C18.0117 10.47 16.0654 10.8359 13.8898 10.8359C11.7142 10.8359 9.76795 10.47 8.38418 9.89723C7.69116 9.61038 7.16313 9.28152 6.81608 8.94191C6.4707 8.60392 6.33325 8.2863 6.33325 8.00128C6.33325 7.71627 6.4707 7.39864 6.81608 7.06066C7.16313 6.72105 7.69116 6.39218 8.38418 6.10534C9.76795 5.53259 11.7142 5.16666 13.8898 5.16666C16.0654 5.16666 18.0117 5.53259 19.3954 6.10534C20.0885 6.39218 20.6165 6.72105 20.9635 7.06066C21.3089 7.39864 21.4464 7.71627 21.4464 8.00128Z" stroke="#707070"/>
<path d="M5.25709 15.5841L5.25779 15.6048C4.80216 15.6357 4.39776 15.2931 4.36411 14.8296L4.36327 14.818L4.36344 14.818C4.36345 14.8183 4.36331 14.8164 4.36299 14.8122C4.3566 14.7284 4.28152 13.7426 4.09794 12.4447L4.09786 12.4441C3.87702 10.8652 3.59765 9.51674 3.27778 8.4476C2.95492 7.36844 2.60132 6.61066 2.25157 6.18179L2.25123 6.18137C2.24119 6.16902 2.23216 6.16312 2.22627 6.16032C2.22076 6.1577 2.21478 6.15619 2.20662 6.15643L2.20305 6.15654L2.20305 6.15653C2.19649 6.15667 2.18861 6.15793 2.18246 6.16044C2.17995 6.16147 2.17767 6.16271 2.17525 6.16453C2.17301 6.16622 2.16841 6.17006 2.1622 6.17833L2.16125 6.17959L2.16125 6.17959C2.15563 6.18702 2.15241 6.1947 2.15096 6.20173L2.84331 13.4608C2.84332 13.4609 2.84333 13.461 2.84334 13.4611C2.93903 14.4435 3.64023 15.2705 4.58223 15.5195L4.58273 15.5196C4.82172 15.5831 5.02613 15.6269 5.22867 15.659L5.23926 15.6607L5.23924 15.6608C5.69188 15.7451 6.18607 15.7933 6.71903 15.806L6.72344 15.8061C7.10798 15.8195 7.50967 15.8091 7.92445 15.7762C8.43925 15.7326 8.93067 15.6686 9.42588 15.5792C10.3105 15.4159 11.2647 15.1559 12.2607 14.8053L12.2613 14.805C12.3407 14.7772 12.3982 14.699 12.3982 14.6077C12.3982 14.5498 12.3938 14.4904 12.3855 14.429C10.1733 14.2496 8.23271 13.7062 6.85259 12.9045C6.50613 12.9313 6.17502 12.9675 5.86142 13.0128C5.9825 13.9996 6.03177 14.6706 6.03453 14.7116M5.25709 15.5841L5.25855 15.6047C5.71998 15.5721 6.0664 15.172 6.03453 14.7116M5.25709 15.5841L5.24059 15.3509L5.24059 15.3509L5.23075 15.2119L5.63544 14.7385M5.25709 15.5841L5.24425 15.2045C5.47831 15.1806 5.65217 14.9749 5.63544 14.7385M6.03453 14.7116L5.63544 14.7385M6.03453 14.7116C6.0345 14.7111 6.03447 14.7107 6.03444 14.7103L5.63544 14.7385M2.56156 5.92899C2.47013 5.81656 2.33887 5.75224 2.1945 5.75662C2.11269 5.75837 1.95825 5.78374 1.84231 5.93818C1.78237 6.01737 1.75 6.11318 1.75 6.21074L2.44519 13.4995C2.55675 14.6466 3.37444 15.6139 4.48 15.9062L2.56156 5.92899ZM2.56156 5.92899C3.36219 6.91074 4.04863 9.20456 4.494 12.3887C4.68781 13.7589 4.76262 14.7906 4.76306 14.8006C4.78021 15.0368 4.98335 15.2146 5.2162 15.2065L2.56156 5.92899ZM2.56156 5.92899L2.56155 5.929L2.56156 5.92899Z" stroke="#707070" stroke-width="0.8"/>
<path d="M13.9995 12.9739C11.6176 12.9739 9.64001 12.5474 8.26711 11.9326C7.58011 11.6249 7.05425 11.2745 6.70381 10.9156C6.48658 10.6931 6.34289 10.4742 6.26481 10.265C6.99061 10.817 7.95601 11.2749 9.08315 11.6137C10.4953 12.038 12.178 12.2804 13.9999 12.2804C15.8219 12.2804 17.5046 12.038 18.9167 11.6137C20.044 11.2749 21.0095 10.8169 21.7353 10.2648C21.6573 10.4743 21.5133 10.6936 21.2956 10.9165C20.945 11.2752 20.4191 11.6255 19.732 11.9331C18.359 12.5476 16.3814 12.9739 13.9995 12.9739Z" stroke="#707070" stroke-width="0.5"/>
<path d="M24.4454 23.4951C24.6261 23.4338 24.7236 23.2374 24.6624 23.0567L22.6044 16.9702C22.3777 17.0026 22.1441 17.0284 21.8987 17.0463L24.0052 23.2781C24.0665 23.4587 24.2629 23.5572 24.4454 23.4951Z" fill="#707070"/>
<path d="M3.55521 23.4951C3.64271 23.5248 3.73677 23.5187 3.81989 23.4771C3.90302 23.4356 3.96558 23.3651 3.99489 23.2776L6.10146 17.0459C5.85777 17.0284 5.62371 17.0021 5.39577 16.9698L3.33777 23.0563C3.30802 23.1438 3.31458 23.2374 3.35527 23.3201C3.39639 23.4032 3.46727 23.4658 3.55521 23.4951Z" fill="#707070"/>
</svg>
