<svg width="28" height="28" viewBox="0 0 28 28" fill="none" xmlns="http://www.w3.org/2000/svg">
<path d="M16.8516 23.4951C17.0336 23.5563 17.23 23.4588 17.2913 23.2776L19.4184 16.9877C19.1839 16.9606 18.9498 16.9282 18.7184 16.8919L16.6342 23.0563C16.6044 23.1438 16.611 23.2374 16.6517 23.3201C16.6928 23.4032 16.7637 23.4658 16.8516 23.4951Z" fill="white"/>
<path d="M11.1492 23.4951C11.2363 23.4653 11.3072 23.4036 11.3483 23.3205C11.3894 23.2374 11.3955 23.1442 11.3662 23.0567L9.28154 16.8919C9.05011 16.9282 8.81604 16.961 8.58154 16.9877L10.7087 23.2776C10.7704 23.4588 10.9672 23.5568 11.1492 23.4951Z" fill="white"/>
<path d="M21.0512 12.4963C19.6753 13.328 17.6435 13.8976 15.2867 14.0521C15.236 14.2336 15.2014 14.4182 15.2014 14.6077C15.2014 14.8667 15.3642 15.0977 15.6061 15.1826C16.6189 15.5391 17.5941 15.8051 18.5041 15.9731C19.0112 16.0646 19.5156 16.1306 20.0445 16.1748C20.4715 16.2089 20.8894 16.219 21.2853 16.2059C21.8414 16.1932 22.3572 16.1429 22.8222 16.0562C23.0567 16.0191 23.2825 15.9705 23.524 15.9062C24.6269 15.6139 25.4433 14.6462 25.5549 13.4986L26.247 6.25187C26.2496 6.11318 26.2172 6.01693 26.1582 5.93906C26.0414 5.78374 25.8869 5.75793 25.8051 5.75662C25.6625 5.75224 25.5295 5.81656 25.438 5.92899C24.6374 6.91031 23.951 9.20412 23.5056 12.3878C23.3118 13.7585 23.237 14.7901 23.2365 14.8002C23.2195 15.0412 23.013 15.2206 22.7689 15.2053C22.5278 15.1878 22.3467 14.9787 22.3637 14.7381C22.3668 14.6991 22.4276 13.8639 22.5834 12.6787C22.1109 12.5952 21.5972 12.5344 21.0508 12.4959L21.0512 12.4963Z" fill="white"/>
<path d="M13.9999 11.1554C18.4494 11.1554 22.0565 9.6624 22.0565 7.82074C22.0565 5.97908 18.4494 4.48611 13.9999 4.48611C9.55041 4.48611 5.94336 5.97908 5.94336 7.82074C5.94336 9.6624 9.55041 11.1554 13.9999 11.1554Z" fill="white"/>
<path d="M5.23075 15.2057C4.99188 15.2219 4.78056 15.0417 4.76306 14.8006C4.76263 14.7906 4.68781 13.7589 4.494 12.3887C4.04863 9.20456 3.36219 6.91074 2.56156 5.92899C2.47013 5.81656 2.33887 5.75224 2.1945 5.75662C2.11269 5.75837 1.95825 5.78374 1.84231 5.93818C1.78237 6.01737 1.75 6.11318 1.75 6.21074L2.44519 13.4995C2.55675 14.6466 3.37444 15.6139 4.48 15.9062C4.73025 15.9727 4.94813 16.0195 5.166 16.0541C5.64288 16.1429 6.15869 16.1927 6.7095 16.2059C7.11113 16.2199 7.5285 16.2089 7.95725 16.1748C8.48444 16.1302 8.98888 16.0646 9.49769 15.9727C10.4059 15.8051 11.3807 15.5391 12.3935 15.1826C12.6359 15.0977 12.7982 14.8662 12.7982 14.6077C12.7982 14.4204 12.7641 14.2354 12.7146 14.0521C10.3574 13.8981 8.32431 13.328 6.94838 12.4963C6.40194 12.5348 5.88831 12.5956 5.41581 12.6792C5.57156 13.8639 5.63281 14.6996 5.63544 14.7385C5.6525 14.9796 5.47138 15.1887 5.23031 15.2057H5.23075Z" fill="white"/>
<path d="M5.94336 9.89014C5.94423 11.5001 9.1813 13.2239 13.9995 13.2239C18.8177 13.2239 22.0547 11.501 22.0565 9.89145C22.0565 9.89145 22.0565 9.89058 22.0565 9.89014V9.65695C20.6324 11.0718 17.6014 12.0304 13.9999 12.0304C10.3984 12.0304 7.36742 11.0718 5.94336 9.65695V9.89014Z" fill="white"/>
<path d="M24.4454 23.4951C24.6261 23.4338 24.7236 23.2374 24.6624 23.0567L22.6044 16.9702C22.3777 17.0026 22.1441 17.0284 21.8987 17.0463L24.0052 23.2781C24.0665 23.4587 24.2629 23.5572 24.4454 23.4951Z" fill="white"/>
<path d="M3.55521 23.4951C3.64271 23.5248 3.73677 23.5187 3.81989 23.4771C3.90302 23.4356 3.96558 23.3651 3.99489 23.2776L6.10146 17.0459C5.85777 17.0284 5.62371 17.0021 5.39577 16.9698L3.33777 23.0563C3.30802 23.1438 3.31458 23.2374 3.35527 23.3201C3.39639 23.4032 3.46727 23.4658 3.55521 23.4951Z" fill="white"/>
</svg>
