<svg width="24" height="24" viewBox="0 0 24 24" fill="none" xmlns="http://www.w3.org/2000/svg">
<g clip-path="url(#clip0_305_9448)">
<path d="M22.3068 10.0509C22.2859 9.94532 22.2425 9.84544 22.1796 9.75809C22.1167 9.67073 22.0357 9.59795 21.9421 9.54468L19.1456 7.95093L19.1343 4.79906C19.134 4.69051 19.1101 4.58333 19.0643 4.48492C19.0185 4.38651 18.9518 4.29921 18.869 4.22906C17.8546 3.37096 16.6864 2.71337 15.4265 2.29125C15.3273 2.25767 15.2221 2.24524 15.1178 2.25477C15.0135 2.26429 14.9124 2.29556 14.8209 2.34656L11.9999 3.92343L9.17618 2.34375C9.08464 2.29246 8.98335 2.26096 8.87887 2.25127C8.77439 2.24158 8.66904 2.25392 8.56962 2.2875C7.31053 2.71233 6.1436 3.37247 5.13087 4.23281C5.04815 4.30286 4.9816 4.39 4.9358 4.48824C4.89 4.58648 4.86603 4.69348 4.86556 4.80187L4.8515 7.95656L2.05493 9.55031C1.96137 9.60357 1.88038 9.67636 1.81745 9.76371C1.75452 9.85107 1.71114 9.95094 1.69025 10.0566C1.43431 11.3427 1.43431 12.6667 1.69025 13.9528C1.71114 14.0584 1.75452 14.1583 1.81745 14.2457C1.88038 14.333 1.96137 14.4058 2.05493 14.4591L4.8515 16.0528L4.86275 19.2056C4.86309 19.3142 4.88699 19.4214 4.93279 19.5198C4.9786 19.6182 5.04522 19.7055 5.12806 19.7756C6.1425 20.6337 7.31071 21.2913 8.57056 21.7134C8.66977 21.747 8.77492 21.7594 8.87923 21.7499C8.98354 21.7404 9.08469 21.7091 9.17618 21.6581L11.9999 20.0766L14.8237 21.6562C14.9354 21.7185 15.0614 21.7508 15.1893 21.75C15.2712 21.75 15.3526 21.7367 15.4302 21.7106C16.689 21.286 17.8559 20.6265 18.869 19.7672C18.9517 19.6971 19.0183 19.61 19.0641 19.5118C19.1099 19.4135 19.1338 19.3065 19.1343 19.1981L19.1484 16.0434L21.9449 14.4497C22.0385 14.3964 22.1195 14.3236 22.1824 14.2363C22.2453 14.1489 22.2887 14.049 22.3096 13.9434C22.5641 12.6583 22.5632 11.3357 22.3068 10.0509ZM11.9999 15.75C11.2583 15.75 10.5332 15.5301 9.91655 15.118C9.29986 14.706 8.81921 14.1203 8.53539 13.4351C8.25156 12.7498 8.17729 11.9958 8.32199 11.2684C8.46668 10.541 8.82384 9.87279 9.34828 9.34835C9.87273 8.8239 10.5409 8.46675 11.2683 8.32205C11.9958 8.17736 12.7498 8.25162 13.435 8.53545C14.1202 8.81928 14.7059 9.29992 15.1179 9.91661C15.53 10.5333 15.7499 11.2583 15.7499 12C15.7499 12.9946 15.3548 13.9484 14.6516 14.6516C13.9483 15.3549 12.9945 15.75 11.9999 15.75Z" fill="white"/>
</g>
<defs>
<clipPath id="clip0_305_9448">
<rect width="24" height="24" fill="white"/>
</clipPath>
</defs>
</svg>
