<svg width="24" height="25" viewBox="0 0 24 25" fill="none" xmlns="http://www.w3.org/2000/svg">
<g clip-path="url(#clip0_305_8887)">
<path d="M21 12.1132V21.0603C21 21.258 20.921 21.4477 20.7803 21.5875C20.6397 21.7273 20.4489 21.8059 20.25 21.8059H15C14.8011 21.8059 14.6103 21.7273 14.4697 21.5875C14.329 21.4477 14.25 21.258 14.25 21.0603V16.214C14.25 16.1151 14.2105 16.0203 14.1402 15.9504C14.0698 15.8805 13.9745 15.8412 13.875 15.8412H10.125C10.0255 15.8412 9.93016 15.8805 9.85983 15.9504C9.78951 16.0203 9.75 16.1151 9.75 16.214V21.0603C9.75 21.258 9.67098 21.4477 9.53033 21.5875C9.38968 21.7273 9.19891 21.8059 9 21.8059H3.75C3.55109 21.8059 3.36032 21.7273 3.21967 21.5875C3.07902 21.4477 3 21.258 3 21.0603V12.1132C3.00018 11.7178 3.15834 11.3387 3.43969 11.0592L10.9397 3.60328C11.221 3.32384 11.6023 3.16687 12 3.16687C12.3977 3.16687 12.779 3.32384 13.0603 3.60328L20.5603 11.0592C20.8417 11.3387 20.9998 11.7178 21 12.1132Z" fill="white"/>
</g>
<defs>
<clipPath id="clip0_305_8887">
<rect width="24" height="23.8588" fill="white" transform="translate(0 0.929413)"/>
</clipPath>
</defs>
</svg>
