<svg width="24" height="25" viewBox="0 0 24 25" fill="none" xmlns="http://www.w3.org/2000/svg">
<g clip-path="url(#clip0_305_9355)">
<path d="M6.01639 14.4774C6.01893 14.5282 6.01111 14.5789 5.99341 14.6266C5.97571 14.6743 5.94849 14.7179 5.91341 14.7547C5.87833 14.7916 5.83612 14.8209 5.78936 14.8409C5.7426 14.8609 5.69225 14.8712 5.64139 14.8711H1.50514C1.33586 14.8714 1.17147 14.8143 1.03871 14.7093C0.905942 14.6043 0.81261 14.4575 0.773887 14.2927C0.749776 14.1799 0.750887 14.0631 0.777142 13.9508C0.803397 13.8385 0.854147 13.7334 0.925762 13.643C1.58746 12.7655 2.46541 12.0745 3.47389 11.6377C3.03113 11.234 2.69155 10.7301 2.48358 10.1682C2.27562 9.60625 2.20532 9.00269 2.27859 8.40802C2.35185 7.81336 2.56654 7.2449 2.90467 6.75027C3.24281 6.25564 3.69454 5.84923 4.22204 5.56508C4.74954 5.28093 5.33744 5.12732 5.93652 5.11711C6.53559 5.10689 7.1284 5.24038 7.66527 5.50638C8.20215 5.77238 8.66748 6.16315 9.02228 6.64597C9.37708 7.12878 9.61102 7.68959 9.70451 8.28141C9.71658 8.361 9.70233 8.44235 9.66391 8.51309C9.6255 8.58383 9.56503 8.64008 9.4917 8.67329C8.45144 9.1542 7.57045 9.92264 6.95267 10.8879C6.3349 11.8532 6.00612 12.9751 6.00514 14.1211C6.00514 14.2411 6.00514 14.3592 6.01639 14.4774ZM23.0789 13.642C22.4187 12.7655 21.5428 12.075 20.5364 11.6377C20.9791 11.234 21.3187 10.7301 21.5267 10.1682C21.7347 9.60625 21.8049 9.00269 21.7317 8.40802C21.6584 7.81336 21.4437 7.2449 21.1056 6.75027C20.7675 6.25564 20.3157 5.84923 19.7882 5.56508C19.2607 5.28093 18.6728 5.12732 18.0738 5.11711C17.4747 5.10689 16.8819 5.24038 16.345 5.50638C15.8081 5.77238 15.3428 6.16315 14.988 6.64597C14.6332 7.12878 14.3993 7.68959 14.3058 8.28141C14.2937 8.361 14.3079 8.44235 14.3464 8.51309C14.3848 8.58383 14.4452 8.64008 14.5186 8.67329C15.5588 9.1542 16.4398 9.92264 17.0576 10.8879C17.6754 11.8532 18.0042 12.9751 18.0051 14.1211C18.0051 14.2411 18.0051 14.3592 17.9939 14.4774C17.9913 14.5282 17.9992 14.5789 18.0169 14.6266C18.0346 14.6743 18.0618 14.7179 18.0969 14.7547C18.1319 14.7916 18.1741 14.8209 18.2209 14.8409C18.2677 14.8609 18.318 14.8712 18.3689 14.8711H22.5051C22.6744 14.8714 22.8388 14.8143 22.9716 14.7093C23.1043 14.6043 23.1977 14.4575 23.2364 14.2927C23.2606 14.1797 23.2595 14.0627 23.2331 13.9502C23.2067 13.8377 23.1556 13.7324 23.0836 13.642H23.0789ZM14.7351 17.6902C15.4819 17.1183 16.0307 16.3267 16.3044 15.4268C16.578 14.5269 16.5628 13.5639 16.2609 12.673C15.959 11.7822 15.3855 11.0084 14.621 10.4603C13.8566 9.91226 12.9396 9.61752 11.999 9.61752C11.0584 9.61752 10.1415 9.91226 9.37704 10.4603C8.6126 11.0084 8.03911 11.7822 7.73718 12.673C7.43525 13.5639 7.42005 14.5269 7.69373 15.4268C7.9674 16.3267 8.51618 17.1183 9.26295 17.6902C7.93783 18.2643 6.83132 19.2476 6.10545 20.4961C6.03962 20.6101 6.00496 20.7395 6.00497 20.8711C6.00498 21.0028 6.03965 21.1322 6.10549 21.2462C6.17134 21.3602 6.26604 21.4549 6.38008 21.5207C6.49412 21.5865 6.62347 21.6211 6.75514 21.6211H17.2551C17.3868 21.6211 17.5162 21.5865 17.6302 21.5207C17.7442 21.4549 17.8389 21.3602 17.9048 21.2462C17.9706 21.1322 18.0053 21.0028 18.0053 20.8711C18.0053 20.7395 17.9707 20.6101 17.9048 20.4961C17.1774 19.2468 16.0688 18.2634 14.7417 17.6902H14.7351Z" fill="white"/>
</g>
<defs>
<clipPath id="clip0_305_9355">
<rect width="24" height="24" fill="white" transform="translate(0.00512695 0.621094)"/>
</clipPath>
</defs>
</svg>
